<?xml version="1.0" standalone="no"?><!DOCTYPE svg PUBLIC "-//W3C//DTD SVG 1.1//EN" "http://www.w3.org/Graphics/SVG/1.1/DTD/svg11.dtd"><svg t="1622862155606" class="icon" viewBox="0 0 1024 1024" version="1.1" xmlns="http://www.w3.org/2000/svg" p-id="1242" width="48" height="48" xmlns:xlink="http://www.w3.org/1999/xlink"><defs><style type="text/css"></style></defs><path d="M218.5 344.3c92.6 0 167.7 75.1 167.7 167.7s-75.1 167.7-167.7 167.7S50.8 604.6 50.8 512s75-167.7 167.7-167.7z" fill="#f35102" p-id="1243"></path><path d="M218.5 512m-125.8 0a125.8 125.8 0 1 0 251.6 0 125.8 125.8 0 1 0-251.6 0Z" fill="#f35102" p-id="1244"></path><path d="M805.5 344.3h41.9v335.5h-41.9z" fill="#f35102" p-id="1245"></path><path d="M805.5 679.7c-51.3 0-97.2 23-127.9 59.3L398.2 577.7l-21 36.3 277.4 160.2c-10.8 22.1-16.8 47-16.8 73.3 0 92.6 75.1 167.7 167.7 167.7s167.7-75.1 167.7-167.7c0-92.7-75-167.8-167.7-167.8z m0 293.6c-69.5 0-125.8-56.3-125.8-125.8S736 721.7 805.5 721.7 931.3 778 931.3 847.5c0 69.4-56.3 125.8-125.8 125.8zM805.5 8.8c-92.6 0-167.7 75.1-167.7 167.7 0 17.8 2.8 34.9 7.9 51L386.4 390.7l19.7 37.2 257.5-162c29.7 47.1 82.2 78.3 141.9 78.3 92.6 0 167.7-75.1 167.7-167.7S898.2 8.8 805.5 8.8z m0 293.5c-69.5 0-125.8-56.3-125.8-125.8S736 50.7 805.5 50.7 931.3 107 931.3 176.5 875 302.3 805.5 302.3z" fill="#f35102" p-id="1246"></path></svg>