<?xml version="1.0" standalone="no"?><!DOCTYPE svg PUBLIC "-//W3C//DTD SVG 1.1//EN" "http://www.w3.org/Graphics/SVG/1.1/DTD/svg11.dtd"><svg t="1622862492911" class="icon" viewBox="0 0 1024 1024" version="1.1" xmlns="http://www.w3.org/2000/svg" p-id="3753" width="32" height="32" xmlns:xlink="http://www.w3.org/1999/xlink"><defs><style type="text/css"></style></defs><path d="M0.00025 514.316749a509.682751 509.682751 0 1 0 1019.366502 0A509.682751 509.682751 0 1 0 0.00025 514.316749z" fill="#1296DB" p-id="3754"></path><path d="M310.443098 486.515762l-2.315998-2.316998v-25.483988l2.315998-4.633998 2.316999-4.632997 2.316999-4.633998 2.316999-4.632998v-6.949997l2.315999-4.633997v-4.632998l2.316999-4.633998v-2.315999l2.316999-2.316998v-4.633998h2.316998V391.529809l2.315999-9.266996 2.316999-6.949996 2.316999-9.266996v-6.949996l2.316999-4.632998 2.315999-4.633998 2.316999-6.949996 2.316999-4.633998 2.316998-6.949997 4.632998-4.632998 2.316999-6.949996 2.316999-2.316999 2.315999-4.633998 4.633998-4.632997 4.632997-6.949997 4.633998-6.949997 4.632998-6.950996 4.633997-4.632998 6.949997-6.949997 6.949997-6.949996 4.633997-4.633998 4.632998-4.633998 6.949997-4.632997 4.633998-2.316999 6.949996-4.633998 6.949997-2.315999 6.949996-4.633998 6.949997-2.316999 6.950997-2.315998 6.949996-2.316999 6.949997-2.316999h6.949996l9.267996-2.316999h6.949996l9.266996-2.315999h39.383981l9.266995 2.315999h6.949997l9.267995 2.316999 6.949997 2.316999 9.266995 2.316999 6.949997 2.315998 9.266995 2.316999 6.949997 4.633998 6.949997 2.315999 9.266995 4.633998 6.949997 4.632997 6.949996 4.633998 4.633998 4.632998 2.316999 2.316999 4.633998 2.316999 4.632997 4.632997 4.633998 4.633998 4.632998 4.632998 4.632998 4.633998 4.633997 6.949996 2.316999 4.632998 4.632998 6.949997 2.316999 4.633997 4.632998 4.633998 2.316998 6.949997 4.633998 11.583994 2.315999 4.632998v4.633997l2.316999 6.949997 2.316999 4.632998v4.633998l2.316999 6.949996 2.315999 9.266996 2.316998 9.266995v6.949997l2.316999 6.949996v13.899994h2.316999l2.315999 6.950996 2.316999 2.316999 2.316999 4.632998 2.316999 4.633997 2.315998 4.632998v4.633998l2.316999 4.632998v9.266995l2.316999 2.316999v4.632998l-2.316999 2.316999v13.899993l-2.316999 2.316999-2.315998 4.633997 2.315998 2.316999v2.315999l6.949997 11.583995 6.949997 9.266995 2.316999 4.632998 4.633997 6.949996 2.316999 6.949997 4.632998 6.950997 2.316999 9.266995 4.632997 9.266996 2.316999 4.633997 2.316999 6.949997 2.316999 4.632998 2.315999 4.633997v6.949997l2.316999 4.632998 2.316999 11.583994v9.266995l2.316999 9.266996v13.899993l-2.316999 4.633998v6.949997l-2.316999 6.949996v6.949997l-2.316999 2.316999v4.633997l-2.315999 2.316999-2.316999 2.315999v2.316999l-2.316999 2.316999h-2.316999v2.316999h-2.315998l-2.316999 2.315999h-4.633998l-2.315999-2.315999h-2.316999l-2.316999-2.316999-2.316998-2.316999-2.315999-2.316999-2.316999-4.632998-2.316999-4.633997-2.315999-2.315999-2.316999-4.633998-2.316999-6.949997-4.632997-6.949996-2.316999 2.316999-2.316999 2.315999-2.316999 6.949996-2.315999 11.583994-4.633998 11.583995-4.632997 4.632998-2.316999 6.949996-4.633998 6.949997-4.632998 6.950996-2.316999 2.316999-2.316998 4.632998-6.949997 6.949997h2.316999l2.316999 2.316998 13.899993 6.949997 4.633998 4.633998 6.949996 2.316999 4.632998 4.632997 4.633998 4.633998 2.316999 2.315999 2.315998 2.316999 2.316999 2.316999v2.316999l2.316999 2.315998v6.949997l2.316999 2.316999-2.316999 2.316999v6.949996l-2.316999 2.316999-2.316999 2.316999-2.315998 2.316999-2.316999 2.315999v2.316999l-4.633998 2.316999-4.632998 2.316999-4.633997 2.315998-4.632998 2.316999-4.633998 2.316999-2.315999 2.316999h-2.316999l-6.949996 2.315999h-6.949997l-4.633998 2.316999-9.266995 2.316999h-53.284974l-6.949997-2.316999h-9.266995l-9.266996-2.316999-6.949996-2.315999-9.266996-2.316999-9.266995-2.316999-6.949997-2.316999-9.267995-2.315998-4.632998-2.316999-2.316999-2.316999h-20.84999l-2.316999-2.316999h-6.949996l-2.316999 2.316999-4.633998 4.633998-6.949996 2.315998-6.949997 4.633998-2.316999 2.316999-4.632998 2.315999-9.266995 2.316999-6.949997 2.316999-4.633997 2.316998h-11.583995l-4.632998 2.315999h-50.968975l-13.899993-2.315999h-6.949996l-6.949997-2.316998h-4.633998l-6.949996-2.316999-6.949997-2.316999h-4.633998l-6.949996-2.315999-4.633998-2.316999-4.632998-2.316999-4.633998-2.316999-2.315998-4.632997h-2.316999l-2.316999-2.316999v-2.316999l-2.316999-2.315999v-2.316999h-2.315999v-4.633998l-2.316999-2.315998v-9.266996l2.316999-2.316999v-9.266995l2.315999-4.633998v-2.315999l2.316999-2.316999v-2.316999l2.316999-2.316998 2.316999-2.315999h2.315998l2.316999-2.316999h2.316999l2.316999-2.316999 2.315999-2.315999h4.633998l2.316998-2.316999h11.582995l4.633998-2.316999h2.316998l-2.316998-2.316999h-2.316999l-4.632998-6.949996-4.633998-2.316999-4.632998-4.632998-4.633997-4.633997-4.632998-6.949997-6.949997-6.949997-2.316998-4.633997-2.316999-2.315999-2.316999-4.633998-2.316999-4.632998-2.315999-4.633998-2.316999-6.949996-2.316999-4.632998-2.315999-6.949996-2.316998-4.633998v-6.949997h-2.316999v-2.316999 2.316999h-2.316999v2.315999l-2.315999 2.316999-2.316999 6.949997v2.316998l-2.316999 2.316999-2.316999 4.632998-4.632997 2.316999-2.316999 4.632998-2.316999 2.316998-4.632998 2.316999-2.316999 2.316999-4.632997 2.315999-2.316999 2.316999-4.633998 2.316999h-6.949997v-4.633998l-2.316999-2.315999-2.315998-2.316999v-6.949996l-2.316999-4.633998V611.619701l2.316999-4.633997v-6.949997l2.315998-4.632998v-6.949996l2.316999-6.949997 2.316999-6.950997 2.316999-6.949996 4.632998-4.633998 2.316999-6.949996 2.316999-6.949997 4.632997-6.949997 4.633998-6.949996 4.632998-6.949997 4.633998-4.633998 4.632997-4.633997 4.633998-6.949997 2.315999-2.316999 2.316999-2.315999 4.633997-4.633997 4.632998-2.316999 6.949997-6.949997 4.633998-4.632998z" fill="#FFFFFF" p-id="3755"></path></svg>